<?xml version="1.0" standalone="no"?>
<!DOCTYPE svg PUBLIC "-//W3C//DTD SVG 20010904//EN"
 "http://www.w3.org/TR/2001/REC-SVG-20010904/DTD/svg10.dtd">
<svg version="1.0" xmlns="http://www.w3.org/2000/svg"
 width="520.000000pt" height="520.000000pt" viewBox="0 0 520.000000 520.000000"
 preserveAspectRatio="xMidYMid meet">

<g transform="translate(0.000000,520.000000) scale(0.100000,-0.100000)"
fill="#000000" stroke="none">
<path d="M2491 3208 c-6 -18 -11 -35 -10 -38 0 -3 -11 -30 -25 -61 -14 -31
-22 -60 -19 -63 4 -3 2 -6 -4 -6 -6 0 -16 -21 -23 -47 -7 -27 -17 -53 -21 -59
-5 -6 -10 -19 -12 -30 -2 -10 -8 -29 -15 -41 -7 -12 -12 -30 -12 -40 0 -11 -5
-24 -12 -31 -6 -6 -10 -14 -7 -16 2 -2 258 -32 569 -65 311 -33 583 -63 605
-66 40 -5 40 -5 59 40 10 25 15 52 12 61 -3 8 -2 13 3 10 5 -3 12 6 15 20 6
23 9 24 24 12 15 -11 15 -11 6 2 -12 16 -15 50 -4 50 7 0 9 10 13 54 1 13 5
22 8 20 4 -2 13 16 20 41 7 25 16 45 20 45 3 0 6 7 6 15 0 8 -4 15 -9 15 -5 0
-6 5 -3 10 5 7 11 8 19 1 8 -7 11 -3 10 17 -1 15 3 32 8 39 7 8 0 13 -24 17
-49 9 -1136 126 -1163 126 -18 0 -26 -8 -34 -32z"/>
<path d="M2460 2476 c-155 -34 -268 -94 -376 -201 -114 -113 -194 -257 -194
-347 1 -71 68 -146 151 -168 25 -7 231 -10 582 -8 l544 3 49 30 c55 34 94 97
94 152 0 85 -101 255 -212 358 -78 72 -208 143 -313 171 -84 22 -245 27 -325
10z"/>
</g>
</svg>
